<svg xmlns="http://www.w3.org/2000/svg" xmlns:xlink="http://www.w3.org/1999/xlink" viewBox="0 0 24 24" fill="#FFFFFF">
  <path d="M11.548828 2.2089844C11.433875 2.2156719 11.317281 2.2432188 11.207031 2.2929688C10.201031 2.7459687 8.5434219 3.7951562 8.1074219 5.9101562C7.6204219 8.2741563 9.1644531 10.722562 11.564453 10.976562C13.969453 11.230562 16 9.353 16 7C16 4.357 13.817 3.5019531 13 3.5019531L12.4375 2.65625C12.2365 2.354 11.893688 2.1889219 11.548828 2.2089844 z M 12 14C8.996 14 3 15.508 3 18.5L3 20C3 20.552 3.448 21 4 21L20 21C20.552 21 21 20.552 21 20L21 18.5C21 15.508 15.004 14 12 14 z" fill="#FFFFFF" />
</svg>