<svg xmlns="http://www.w3.org/2000/svg" xmlns:xlink="http://www.w3.org/1999/xlink" viewBox="0 0 26 26" fill="#FFFFFF">
  <path d="M13 0C12.398438 0 12 0.398438 12 1L12 2.09375C9.167969 2.570313 7 5.035156 7 8L7 13C7 13.800781 2 17.800781 2 19C2 20.699219 6.398438 22 13 22C19.601563 22 24 20.699219 24 19C24 17.800781 19 13.800781 19 13L19 8C19 5.035156 16.832031 2.570313 14 2.09375L14 1C14 0.398438 13.601563 0 13 0 Z M 11.3125 23.09375C11.113281 23.394531 11 23.601563 11 24C11 25.101563 11.898438 26 13 26C14.101563 26 15 25.101563 15 24C15 23.601563 14.886719 23.394531 14.6875 23.09375Z" fill="#FFFFFF" />
</svg>