<svg xmlns="http://www.w3.org/2000/svg" xmlns:xlink="http://www.w3.org/1999/xlink" viewBox="0 0 48 48"><radialGradient id="9HBmwQWLXZEtBQqvsXHnca" cx="24" cy="24" r="18" fx="23.905" fy="16.289" gradientUnits="userSpaceOnUse"><stop offset="0" stop-color="#ffe16e"/><stop offset=".629" stop-color="#ffd226"/><stop offset=".75" stop-color="#fdcd23"/><stop offset=".899" stop-color="#f6bd1b"/><stop offset=".999" stop-color="#f0af13"/></radialGradient><circle cx="24" cy="24" r="18" fill="url(#9HBmwQWLXZEtBQqvsXHnca)"/><radialGradient id="9HBmwQWLXZEtBQqvsXHncb" cx="-28.376" cy="21.439" r="5.456" fx="-28.38" fy="21.643" gradientTransform="matrix(1.9165 0 0 1.0383 78.386 9.066)" gradientUnits="userSpaceOnUse"><stop offset=".947" stop-color="#ffe16e"/><stop offset="1" stop-color="#ffe16e" stop-opacity="0"/></radialGradient><path fill="url(#9HBmwQWLXZEtBQqvsXHncb)" d="M32.642,31c0,0-1.996,5-8.642,5c-6.156,0-8.637-5-8.637-5s1.627,2.305,8.72,2.305S32.642,31,32.642,31z"/><radialGradient id="9HBmwQWLXZEtBQqvsXHncc" cx="-21.91" cy=".911" r="8.479" gradientTransform="matrix(1.0924 0 0 1.1169 48.038 27.475)" gradientUnits="userSpaceOnUse"><stop offset=".819" stop-color="#cc9000"/><stop offset="1" stop-color="#cc9000" stop-opacity="0"/></radialGradient><path fill="url(#9HBmwQWLXZEtBQqvsXHncc)" d="M24,36c-6.815,0-9.227-5.819-9.227-5.819S15.923,38,24,38s9.227-7.819,9.227-7.819S30.815,36,24,36z"/><radialGradient id="9HBmwQWLXZEtBQqvsXHncd" cx="24" cy="30.843" r="9.652" gradientTransform="matrix(1 0 0 .3754 0 19.265)" gradientUnits="userSpaceOnUse"><stop offset="0" stop-color="#1c1911"/><stop offset=".999" stop-color="#171714"/></radialGradient><path fill="url(#9HBmwQWLXZEtBQqvsXHncd)" d="M32.378,29.788c0.455-0.38,1.076,0.215,0.717,0.687C31.453,32.634,28.603,35,24,35s-7.453-2.366-9.095-4.525c-0.359-0.472,0.262-1.067,0.717-0.687C17.501,31.355,20.344,33,24,33S30.499,31.355,32.378,29.788z"/><radialGradient id="9HBmwQWLXZEtBQqvsXHnce" cx="24" cy="23" r="11.18" gradientTransform="matrix(-1 0 0 1 48 0)" gradientUnits="userSpaceOnUse"><stop offset="0" stop-color="#1c1911"/><stop offset=".999" stop-color="#171714"/></radialGradient><path fill="url(#9HBmwQWLXZEtBQqvsXHnce)" d="M17,18c3.505,0,5,1,7,1s3.495-1,7-1h7.469C38.762,18,39,18.238,39,18.531v1.094c0,0.207-0.12,0.389-0.307,0.479C38.4,20.246,38,20.568,38,21.274C38,25.026,36.115,28,31.165,28C27.324,28,25,25.691,25,22.054C25,21.325,24.506,21,24,21s-1,0.325-1,1.054C23,25.691,20.676,28,16.835,28C11.885,28,10,25.026,10,21.274c0-0.706-0.4-1.028-0.693-1.17C9.12,20.014,9,19.832,9,19.625v-1.094C9,18.238,9.238,18,9.531,18H17z"/><radialGradient id="9HBmwQWLXZEtBQqvsXHncf" cx="31.333" cy="28.21" r="9.903" gradientTransform="matrix(0 -1 2.2837 0 -33.09 59.543)" gradientUnits="userSpaceOnUse"><stop offset=".335" stop-color="#1a1812"/><stop offset=".468" stop-color="#1e1c17"/><stop offset=".616" stop-color="#2a2924"/><stop offset=".771" stop-color="#3e3d3a"/><stop offset=".93" stop-color="#5b5a59"/><stop offset="1" stop-color="#696969"/></radialGradient><path fill="url(#9HBmwQWLXZEtBQqvsXHncf)" d="M37,21c0-1.105-0.895-2-2-2h-4c-0.992,0-2.334,0.211-3.378,0.41C26.679,19.589,26,20.414,26,21.374v0.68C26,25.151,27.931,27,31.165,27C35.037,27,37,25.073,37,21.274V21z"/><radialGradient id="9HBmwQWLXZEtBQqvsXHncg" cx="31.333" cy="28.21" r="9.903" gradientTransform="matrix(0 -1 -2.2837 0 81.09 59.543)" gradientUnits="userSpaceOnUse"><stop offset=".335" stop-color="#1a1812"/><stop offset=".468" stop-color="#1e1c17"/><stop offset=".616" stop-color="#2a2924"/><stop offset=".771" stop-color="#3e3d3a"/><stop offset=".93" stop-color="#5b5a59"/><stop offset="1" stop-color="#696969"/></radialGradient><path fill="url(#9HBmwQWLXZEtBQqvsXHncg)" d="M11,21c0-1.105,0.895-2,2-2h4c0.992,0,2.334,0.211,3.378,0.41C21.321,19.589,22,20.414,22,21.374v0.68C22,25.151,20.069,27,16.835,27C12.963,27,11,25.073,11,21.274V21z"/></svg>