<svg xmlns="http://www.w3.org/2000/svg" xmlns:xlink="http://www.w3.org/1999/xlink" viewBox="0 0 48 48"><radialGradient id="F0EAjyXn8kvRJ_0UuCNiPa" cx="34.144" cy="41.129" r="7.059" gradientTransform="matrix(-.8333 .0028 -.00095 -.4069 61.611 57.768)" gradientUnits="userSpaceOnUse"><stop offset="0" stop-color="#1c7fb0"/><stop offset=".046" stop-color="#1787be"/><stop offset=".155" stop-color="#0d96da"/><stop offset=".264" stop-color="#06a1ef"/><stop offset=".372" stop-color="#01a8fb"/><stop offset=".479" stop-color="#0af"/><stop offset=".774" stop-color="#0bf"/><stop offset="1" stop-color="#4fd0ff"/></radialGradient><ellipse cx="33" cy="42" fill="url(#F0EAjyXn8kvRJ_0UuCNiPa)" rx="5" ry="2"/><radialGradient id="F0EAjyXn8kvRJ_0UuCNiPb" cx="-656" cy="24" r="18" fx="-656.095" fy="16.289" gradientTransform="translate(680)" gradientUnits="userSpaceOnUse"><stop offset="0" stop-color="#ffe16e"/><stop offset=".629" stop-color="#ffd426"/><stop offset=".72" stop-color="#fdcd23"/><stop offset=".854" stop-color="#f8b919"/><stop offset="1" stop-color="#f09c0c"/></radialGradient><circle cx="24" cy="24" r="18" fill="url(#F0EAjyXn8kvRJ_0UuCNiPb)"/><path fill="#805b2a" d="M36.093,16.791c-0.449-0.501-1.075-0.982-1.701-1.354c-0.637-0.379-1.317-0.679-2.017-0.911 c-0.709-0.209-1.427-0.38-2.163-0.451c-0.732-0.089-1.474-0.086-2.211-0.06l-0.035,0.001c-0.562,0.02-1.034-0.419-1.054-0.981 c-0.02-0.562,0.419-1.034,0.981-1.054c0.036-0.001,0.073-0.001,0.108,0.002c0.844,0.06,1.685,0.151,2.511,0.343 c0.828,0.173,1.633,0.457,2.41,0.785c0.771,0.351,1.505,0.776,2.178,1.284c0.677,0.52,1.276,1.069,1.807,1.813 c0.16,0.224,0.108,0.535-0.116,0.695c-0.209,0.149-0.493,0.114-0.661-0.073L36.093,16.791z"/><path fill="#805b2a" d="M11.093,16.209c0.531-0.744,1.131-1.293,1.807-1.813c0.673-0.508,1.408-0.934,2.178-1.284 c0.777-0.328,1.582-0.612,2.41-0.785c0.826-0.192,1.667-0.284,2.511-0.343c0.561-0.04,1.048,0.383,1.088,0.944 c0.04,0.561-0.383,1.048-0.944,1.088c-0.036,0.003-0.072,0.003-0.107,0.002L20,14.016c-0.737-0.026-1.479-0.03-2.211,0.06 c-0.736,0.07-1.454,0.241-2.163,0.451c-0.7,0.232-1.381,0.531-2.017,0.911c-0.627,0.371-1.252,0.853-1.701,1.354l-0.037,0.041 c-0.184,0.205-0.499,0.222-0.704,0.038C10.975,16.699,10.947,16.413,11.093,16.209z"/><radialGradient id="F0EAjyXn8kvRJ_0UuCNiPc" cx="24" cy="31.972" r="5.014" gradientUnits="userSpaceOnUse"><stop offset=".899" stop-color="#ffe16e"/><stop offset="1" stop-color="#ffe16e" stop-opacity="0"/></radialGradient><circle cx="24" cy="32" r="5" fill="url(#F0EAjyXn8kvRJ_0UuCNiPc)"/><radialGradient id="F0EAjyXn8kvRJ_0UuCNiPd" cx="24" cy="30.5" r="5.256" gradientUnits="userSpaceOnUse"><stop offset="0" stop-color="#1c1911"/><stop offset=".999" stop-color="#171714"/></radialGradient><path fill="url(#F0EAjyXn8kvRJ_0UuCNiPd)" d="M29,30c0-2.761-2.239-5-5-5s-5,2.239-5,5c0,0.171,0,0.829,0,1c0,2.761,2.239,5,5,5 s5-2.239,5-5C29,30.829,29,30.171,29,30z"/><radialGradient id="F0EAjyXn8kvRJ_0UuCNiPe" cx="-95.079" cy="19.264" r="3.653" gradientTransform="matrix(1.3333 0 0 1.74 150.667 -1.21)" gradientUnits="userSpaceOnUse"><stop offset=".696" stop-color="#cc9000"/><stop offset="1" stop-color="#cc9000" stop-opacity="0"/></radialGradient><path fill="url(#F0EAjyXn8kvRJ_0UuCNiPe)" d="M24,37c-4.633,0-5-4.75-5-4.75s0.269,6.5,5,6.5s5-6.5,5-6.5S28.633,37,24,37z"/><linearGradient id="F0EAjyXn8kvRJ_0UuCNiPf" x1="20.555" x2="27.445" y1="27" y2="27" gradientUnits="userSpaceOnUse"><stop offset=".001" stop-color="#968f72"/><stop offset=".048" stop-color="#b2ad97"/><stop offset=".098" stop-color="#cac6b7"/><stop offset=".153" stop-color="#dddbd2"/><stop offset=".213" stop-color="#ecebe6"/><stop offset=".281" stop-color="#f7f6f4"/><stop offset=".363" stop-color="#fdfdfc"/><stop offset=".5" stop-color="#fff"/><stop offset=".637" stop-color="#fdfdfc"/><stop offset=".719" stop-color="#f7f6f4"/><stop offset=".787" stop-color="#ecebe6"/><stop offset=".847" stop-color="#dddbd2"/><stop offset=".902" stop-color="#cac6b7"/><stop offset=".952" stop-color="#b2ad97"/><stop offset="1" stop-color="#968f72"/></linearGradient><path fill="url(#F0EAjyXn8kvRJ_0UuCNiPf)" d="M20.555,28h6.891c-0.693-1.191-1.968-2-3.445-2S21.248,26.809,20.555,28z"/><linearGradient id="F0EAjyXn8kvRJ_0UuCNiPg" x1="33.5" x2="33.5" y1="19" y2="41.802" gradientUnits="userSpaceOnUse"><stop offset="0" stop-color="#1c7fb0"/><stop offset=".032" stop-color="#3994c2"/><stop offset=".078" stop-color="#5dafd8"/><stop offset=".124" stop-color="#7ac3e9"/><stop offset=".171" stop-color="#8ed2f5"/><stop offset=".217" stop-color="#9adbfd"/><stop offset=".263" stop-color="#9edeff"/><stop offset=".362" stop-color="#75d0ff"/><stop offset=".449" stop-color="#58c7ff"/><stop offset=".498" stop-color="#4dc3ff"/><stop offset=".695" stop-color="#0af"/><stop offset=".889" stop-color="#009be8"/><stop offset="1" stop-color="#0af"/></linearGradient><path fill="url(#F0EAjyXn8kvRJ_0UuCNiPg)" d="M36,42c0,0-1.202,0.399-2.96,0.399S30,42,30,42s3-5,3-12c0-8-4-10-4-10l4-1c0,0,5,3,5,11C38,37,36,42,36,42z"/><radialGradient id="F0EAjyXn8kvRJ_0UuCNiPh" cx="29.114" cy="31.695" r="11.353" gradientTransform="matrix(1 0 0 2.1977 0 -37.962)" gradientUnits="userSpaceOnUse"><stop offset=".376" stop-color="#9edeff" stop-opacity="0"/><stop offset=".537" stop-color="#9edeff" stop-opacity=".6"/><stop offset=".725" stop-color="#9edeff" stop-opacity="0"/></radialGradient><path fill="url(#F0EAjyXn8kvRJ_0UuCNiPh)" d="M36,42c0,0-1.202,0.399-2.96,0.399S30,42,30,42s3-5,3-12c0-8-4-10-4-10l4-1c0,0,5,3,5,11C38,37,36,42,36,42z"/><circle cx="35.5" cy="20.5" r=".5" fill="#212121"/><path fill="#212121" d="M28.742,20.939c0,0,1.726-0.944,3.258-0.944s3.258,0.944,3.258,0.944l0.631-0.754 c0,0-1.765-2.185-3.889-2.185s-3.889,2.185-3.889,2.185L28.742,20.939z"/><circle cx="28.5" cy="20.5" r=".5" fill="#212121"/><radialGradient id="F0EAjyXn8kvRJ_0UuCNiPi" cx="33.122" cy="42.595" r="1.118" gradientTransform="matrix(3.2875 0 0 1.1144 -75.86 -5.098)" gradientUnits="userSpaceOnUse"><stop offset="0" stop-color="#9edeff"/><stop offset="1" stop-color="#9edeff" stop-opacity="0"/></radialGradient><ellipse cx="33.029" cy="42.368" fill="url(#F0EAjyXn8kvRJ_0UuCNiPi)" rx="3.675" ry="1.246"/><radialGradient id="F0EAjyXn8kvRJ_0UuCNiPj" cx="34.144" cy="41.129" r="7.059" gradientTransform="matrix(.8333 .0028 .00095 -.4069 -13.611 57.768)" gradientUnits="userSpaceOnUse"><stop offset="0" stop-color="#1c7fb0"/><stop offset=".046" stop-color="#1787be"/><stop offset=".155" stop-color="#0d96da"/><stop offset=".264" stop-color="#06a1ef"/><stop offset=".372" stop-color="#01a8fb"/><stop offset=".479" stop-color="#0af"/><stop offset=".774" stop-color="#0bf"/><stop offset="1" stop-color="#4fd0ff"/></radialGradient><ellipse cx="15" cy="42" fill="url(#F0EAjyXn8kvRJ_0UuCNiPj)" rx="5" ry="2"/><linearGradient id="F0EAjyXn8kvRJ_0UuCNiPk" x1="33.5" x2="33.5" y1="19" y2="41.802" gradientTransform="matrix(-1 0 0 1 48 0)" gradientUnits="userSpaceOnUse"><stop offset="0" stop-color="#1c7fb0"/><stop offset=".032" stop-color="#3994c2"/><stop offset=".078" stop-color="#5dafd8"/><stop offset=".124" stop-color="#7ac3e9"/><stop offset=".171" stop-color="#8ed2f5"/><stop offset=".217" stop-color="#9adbfd"/><stop offset=".263" stop-color="#9edeff"/><stop offset=".362" stop-color="#75d0ff"/><stop offset=".449" stop-color="#58c7ff"/><stop offset=".498" stop-color="#4dc3ff"/><stop offset=".695" stop-color="#0af"/><stop offset=".889" stop-color="#009be8"/><stop offset="1" stop-color="#0af"/></linearGradient><path fill="url(#F0EAjyXn8kvRJ_0UuCNiPk)" d="M12,42c0,0,1.202,0.399,2.96,0.399S18,42,18,42s-3-5-3-12c0-8,4-10,4-10l-4-1c0,0-5,3-5,11C10,37,12,42,12,42z"/><radialGradient id="F0EAjyXn8kvRJ_0UuCNiPl" cx="29.114" cy="31.695" r="11.353" gradientTransform="matrix(-1 0 0 2.1977 48 -37.962)" gradientUnits="userSpaceOnUse"><stop offset=".376" stop-color="#9edeff" stop-opacity="0"/><stop offset=".537" stop-color="#9edeff" stop-opacity=".6"/><stop offset=".725" stop-color="#9edeff" stop-opacity="0"/></radialGradient><path fill="url(#F0EAjyXn8kvRJ_0UuCNiPl)" d="M12,42c0,0,1.202,0.399,2.96,0.399S18,42,18,42s-3-5-3-12c0-8,4-10,4-10l-4-1c0,0-5,3-5,11C10,37,12,42,12,42z"/><radialGradient id="F0EAjyXn8kvRJ_0UuCNiPm" cx="33.122" cy="42.595" r="1.118" gradientTransform="matrix(-3.2875 0 0 1.1144 123.86 -5.098)" gradientUnits="userSpaceOnUse"><stop offset="0" stop-color="#9edeff"/><stop offset="1" stop-color="#9edeff" stop-opacity="0"/></radialGradient><ellipse cx="14.971" cy="42.368" fill="url(#F0EAjyXn8kvRJ_0UuCNiPm)" rx="3.675" ry="1.246"/><g><circle cx="19.5" cy="20.5" r=".5" fill="#212121"/><path fill="#212121" d="M12.742,20.939c0,0,1.726-0.944,3.258-0.944s3.258,0.944,3.258,0.944l0.631-0.754 c0,0-1.765-2.185-3.889-2.185s-3.889,2.185-3.889,2.185L12.742,20.939z"/><circle cx="12.5" cy="20.5" r=".5" fill="#212121"/></g></svg>