<svg xmlns="http://www.w3.org/2000/svg" xmlns:xlink="http://www.w3.org/1999/xlink" viewBox="0 0 26 26" fill="#FFFFFF">
  <path d="M12.087891 0.005859375C11.525391 0.068609375 11.000781 0.57189063 10.800781 1.2753906C10.500781 2.2813906 9.3992188 2.1800781 8.1992188 2.0800781C6.8992188 1.7780781 6.7992187 2.5827188 7.1992188 3.3867188C7.4992188 3.7877187 8.5003906 6.8038125 8.9003906 7.5078125C9.2003906 8.1108125 11.400391 8.4121094 12.400391 8.4121094C13.400391 8.4121094 15.6 7.9098594 15.5 7.0058594C15.4 5.2968594 16.499219 2.7844219 16.699219 2.4824219C17.099219 1.8794219 17.100391 0.57278125 15.400391 1.1757812C15.000391 1.2767813 13.999609 2.5829531 13.599609 1.3769531C13.249609 0.32145312 12.650391 -0.056890625 12.087891 0.005859375 z M 16.199219 8.6113281C15.999219 8.5113281 15.6 9.7183594 12.5 9.8183594C9.7 9.9183594 8.9007812 8.9121094 8.8007812 8.9121094C4.7007812 10.320109 1 14.642844 1 18.964844C1 24.491844 4.3 26 13 26C21.7 26 25 24.290281 25 18.863281C25 14.240281 20.599219 9.8183281 16.199219 8.6113281 z M 13.476562 13C13.720562 13 13.966937 13.025453 14.210938 13.064453C14.454937 13.090453 14.727 13.142031 15 13.207031L14.855469 14.757812C14.639469 14.679813 14.411641 14.626891 14.181641 14.587891C13.951641 14.535891 13.706563 14.523437 13.476562 14.523438C13.031562 14.523438 12.701031 14.692922 12.457031 15.044922C12.261031 15.326922 12.091297 15.644 12.029297 16L14 16L14 17L12 17L12 18L14 18L14 19L12.009766 19C12.032766 19.397 12.227031 19.739203 12.457031 20.033203C12.701031 20.332203 13.045563 20.490234 13.476562 20.490234C13.720562 20.490234 13.951641 20.4765 14.181641 20.4375C14.411641 20.3985 14.640469 20.347531 14.855469 20.269531L15 21.804688C14.756 21.869688 14.511906 21.921266 14.253906 21.947266C13.994906 21.986266 13.735563 22 13.476562 22C12.442562 22 11.594891 21.714234 10.962891 21.115234C10.334891 20.534234 10.025812 19.827 10.007812 19L9 19L9 18L10 18L10 17L9 17L9 16L10.025391 16C10.085391 15.213 10.382266 14.533844 10.947266 13.964844C11.594266 13.326844 12.427563 13 13.476562 13 z" fill="#FFFFFF" />
</svg>