<svg xmlns="http://www.w3.org/2000/svg" xmlns:xlink="http://www.w3.org/1999/xlink" viewBox="0 0 26 26" fill="#FFFFFF">
  <path d="M21.25 0C20.351563 0.128906 19.546875 0.546875 18.90625 1.1875L17.28125 2.78125L18.71875 4.21875L20.3125 2.59375C20.671875 2.234375 21.027344 2.070313 21.53125 2L26 2L26 0 Z M 13.09375 2.78125C12.667969 2.78125 12.257813 2.960938 11.90625 3.3125L9.90625 5.3125C9.507813 5.710938 9.507813 6.195313 9.90625 6.59375L16.90625 13.59375C17.304688 13.992188 17.90625 13.992188 18.40625 13.59375L18.90625 13.09375C19.207031 12.894531 19.40625 12.492188 19.40625 12.09375L18.90625 8.6875C18.90625 8.1875 18.804688 7.804688 18.40625 7.40625L17.90625 6.90625L18.40625 5.3125L16.3125 3.1875L14.6875 3.6875L14.3125 3.3125C13.960938 2.960938 13.519531 2.78125 13.09375 2.78125 Z M 9 7.3125L2.59375 13.6875L7.6875 18.8125C8.585938 19.710938 10.007813 19.710938 10.90625 18.8125L15.6875 14 Z M 10.0625 11.3125C10.613281 11.3125 11.144531 11.550781 11.59375 12L13.09375 13.5C13.394531 13.800781 13.394531 14.292969 13.09375 14.59375L10.3125 17.40625C9.710938 18.007813 8.90625 18.007813 8.40625 17.40625L6.3125 15.3125C6.011719 15.011719 6.011719 14.488281 6.3125 14.1875L8.5 12C8.949219 11.550781 9.511719 11.3125 10.0625 11.3125 Z M 10.84375 12.875C10.644531 12.875 10.460938 12.945313 10.3125 13.09375C9.511719 13.894531 8.5 14.804688 8.5 14.90625C10 14.304688 11.09375 13.90625 12.09375 13.90625L11.40625 13.09375C11.257813 12.945313 11.042969 12.875 10.84375 12.875 Z M 2.125 15.0625C0.8125 16.253906 0 18.027344 0 20C0 22.449219 1.28125 24.546875 3.125 25.8125L4.28125 24.1875C2.925781 23.253906 2 21.75 2 20C2 18.574219 2.582031 17.339844 3.46875 16.53125Z" fill="#FFFFFF" />
</svg>