<svg xmlns="http://www.w3.org/2000/svg" xmlns:xlink="http://www.w3.org/1999/xlink" viewBox="0 0 32 32" fill="#FFFFFF">
  <path d="M19.5 4C18.186026 4 17.021022 4.6961422 16.236328 5.7050781C15.73325 6.3519213 15.385539 7.1405271 15.1875 8L14 8L14 9L15.039062 9C15.026796 9.1669798 15 9.3293945 15 9.5C15 9.6706056 15.026796 9.8330201 15.039062 10L14 10L14 11L15.1875 11C15.385539 11.859473 15.73325 12.648079 16.236328 13.294922C17.021022 14.303858 18.186026 15 19.5 15C21.149933 15 22.535482 13.920096 23.294922 12.462891L21.521484 11.537109C21.024924 12.489904 20.276067 13 19.5 13C18.880974 13 18.29651 12.688173 17.814453 12.068359C17.585351 11.773786 17.393831 11.409121 17.251953 11L20 11L20 10L17.039062 10C17.021442 9.8352322 17 9.6720508 17 9.5C17 9.3279491 17.021442 9.1647678 17.039062 9L19.998047 9L19.998047 8L17.251953 8C17.393831 7.5908792 17.585351 7.2262139 17.814453 6.9316406C18.29651 6.3118266 18.880974 6 19.5 6C20.276067 6 21.024924 6.5100957 21.521484 7.4628906L23.294922 6.5371094C22.535482 5.0799043 21.149933 4 19.5 4 z M 11.453125 16C8.25588 16 4.0214844 17.759766 4.0214844 17.759766L4.7578125 19.619141C4.7578125 19.619141 9.06237 18 11.453125 18C12.419957 18 14.072474 18.584974 15.419922 19.273438C16.093646 19.617669 16.702891 19.981507 17.148438 20.277344C17.371211 20.425262 17.554355 20.557027 17.673828 20.652344C17.701859 20.674708 17.712956 20.689551 17.734375 20.710938C17.767101 20.74108 17.800014 20.770701 17.826172 20.804688L17.892578 20.90625C18.019246 21.144321 18.01438 21.435337 17.84375 21.679688C17.649464 21.955823 17.307018 22.06272 16.988281 21.955078L12.636719 19.884766L11.777344 21.689453L16.269531 23.826172L16.318359 23.84375C17.475203 24.249193 18.774492 23.83545 19.480469 22.832031L19.480469 22.830078C19.878753 22.263041 20.018182 21.592385 19.945312 20.947266L24.71875 20.167969L24.720703 20.167969C25.251221 20.079639 25.752354 20.381536 25.921875 20.890625C26.101509 21.430058 25.855855 21.990361 25.337891 22.21875C23.872711 22.864331 21.488457 23.829548 19.371094 24.625C18.312412 25.022726 17.318545 25.378918 16.544922 25.630859C16.15811 25.75683 15.824244 25.855742 15.578125 25.919922C15.331957 25.984106 15.125208 26 15.226562 26C15.289463 26 14.873121 25.90444 14.402344 25.650391C13.931567 25.396336 13.35454 25.031842 12.763672 24.65625C12.172803 24.280658 11.566785 23.895118 10.984375 23.585938C10.401965 23.276757 9.8853222 23 9.1777344 23C7.541807 23 6.0820313 23.632813 6.0820312 23.632812L6.84375 25.482422C6.84375 25.482422 8.0876617 25 9.1777344 25C9.1516464 25 9.5696917 25.09824 10.046875 25.351562C10.524058 25.604882 11.1024 25.969342 11.691406 26.34375C12.280413 26.718158 12.879605 27.103664 13.451172 27.412109C14.022739 27.720555 14.516664 28 15.226562 28C15.567918 28 15.7756 27.93589 16.083984 27.855469C16.392369 27.775049 16.753609 27.66492 17.164062 27.53125C17.98497 27.26391 18.997775 26.900493 20.074219 26.496094C22.227105 25.687296 24.620711 24.720247 26.144531 24.048828C27.590568 23.411217 28.318679 21.756332 27.820312 20.259766C27.344264 18.830142 25.882583 17.949894 24.396484 18.195312L24.392578 18.195312L18.921875 19.087891C18.905089 19.074499 18.878718 19.058468 18.861328 19.044922C18.840218 19.029285 18.824417 19.009251 18.802734 18.994141L18.509766 18.787109L18.507812 18.791016C18.420524 18.730022 18.353721 18.676307 18.255859 18.611328C17.737906 18.267414 17.073354 17.871956 16.330078 17.492188C14.843526 16.732651 13.094293 16 11.453125 16 z" fill="#FFFFFF" />
</svg>