<svg xmlns="http://www.w3.org/2000/svg" xmlns:xlink="http://www.w3.org/1999/xlink" viewBox="0 0 24 24" fill="#FFFFFF">
  <path d="M11 3C10.448 3 10 3.448 10 4L10 6C10 6.552 10.448 7 11 7L13 7C13.552 7 14 6.552 14 6L14 4C14 3.448 13.552 3 13 3L11 3 z M 11 10C10.448 10 10 10.448 10 11L10 13C10 13.552 10.448 14 11 14L13 14C13.552 14 14 13.552 14 13L14 11C14 10.448 13.552 10 13 10L11 10 z M 11 17C10.448 17 10 17.448 10 18L10 20C10 20.552 10.448 21 11 21L13 21C13.552 21 14 20.552 14 20L14 18C14 17.448 13.552 17 13 17L11 17 z" fill="#FFFFFF" />
</svg>