<svg xmlns="http://www.w3.org/2000/svg" xmlns:xlink="http://www.w3.org/1999/xlink" viewBox="0 0 26 26" fill="#FFFFFF">
  <path d="M12.087891 0.005859375C11.525391 0.068609375 11.000781 0.57189063 10.800781 1.2753906C10.500781 2.2813906 9.3992188 2.1800781 8.1992188 2.0800781C6.8992188 1.7780781 6.7992187 2.5827188 7.1992188 3.3867188C7.4992188 3.7877187 8.5003906 6.8038125 8.9003906 7.5078125C9.2003906 8.1108125 11.400391 8.4121094 12.400391 8.4121094C13.400391 8.4121094 15.6 7.9098594 15.5 7.0058594C15.4 5.2968594 16.499219 2.7844219 16.699219 2.4824219C17.099219 1.8794219 17.100391 0.57278125 15.400391 1.1757812C15.000391 1.2767813 13.999609 2.5829531 13.599609 1.3769531C13.249609 0.32145312 12.650391 -0.056890625 12.087891 0.005859375 z M 16.199219 8.6113281C15.999219 8.5113281 15.6 9.7183594 12.5 9.8183594C9.7 9.9183594 8.9007812 8.9121094 8.8007812 8.9121094C4.7007812 10.320109 1 14.642844 1 18.964844C1 24.491844 4.3 26 13 26C21.7 26 25 24.290281 25 18.863281C25 14.240281 20.599219 9.8183281 16.199219 8.6113281 z M 9.0078125 13L11 13L13 16.25L15 13L16.96875 13L14.013672 18L15 18L15 19L14 19L14 20L15 20L15 21L14 21L14 22L12 22L12 21L11 21L11 20L12 20L12 19L11 19L11 18L11.984375 18L9.0078125 13 z" fill="#FFFFFF" />
</svg>