<svg xmlns="http://www.w3.org/2000/svg" xmlns:xlink="http://www.w3.org/1999/xlink" viewBox="0 0 24 24" fill="#FFFFFF">
  <path d="M9.6679688 2L9.1757812 4.5234375C8.3550224 4.8338012 7.5961042 5.2674041 6.9296875 5.8144531L4.5058594 4.9785156L2.1738281 9.0214844L4.1132812 10.707031C4.0445153 11.128986 4 11.558619 4 12C4 12.441381 4.0445153 12.871014 4.1132812 13.292969L2.1738281 14.978516L4.5058594 19.021484L6.9296875 18.185547C7.5961042 18.732596 8.3550224 19.166199 9.1757812 19.476562L9.6679688 22L14.332031 22L14.824219 19.476562C15.644978 19.166199 16.403896 18.732596 17.070312 18.185547L19.494141 19.021484L21.826172 14.978516L19.886719 13.292969C19.955485 12.871014 20 12.441381 20 12C20 11.558619 19.955485 11.128986 19.886719 10.707031L21.826172 9.0214844L19.494141 4.9785156L17.070312 5.8144531C16.403896 5.2674041 15.644978 4.8338012 14.824219 4.5234375L14.332031 2L9.6679688 2 z M 12 8C14.209 8 16 9.791 16 12C16 14.209 14.209 16 12 16C9.791 16 8 14.209 8 12C8 9.791 9.791 8 12 8 z" fill="#FFFFFF" />
</svg>