<svg xmlns="http://www.w3.org/2000/svg" xmlns:xlink="http://www.w3.org/1999/xlink" viewBox="0 0 48 48"><radialGradient id="WZr0_LgLKHPc1SB5nP~4ra" cx="24" cy="24" r="18" fx="23.905" fy="16.289" gradientUnits="userSpaceOnUse"><stop offset="0" stop-color="#ffe16e"/><stop offset=".629" stop-color="#ffd226"/><stop offset=".75" stop-color="#fdcd23"/><stop offset=".899" stop-color="#f6bd1b"/><stop offset=".999" stop-color="#f0af13"/></radialGradient><circle cx="24" cy="24" r="18" fill="url(#WZr0_LgLKHPc1SB5nP~4ra)"/><radialGradient id="WZr0_LgLKHPc1SB5nP~4rb" cx="36" cy="27" r="5" gradientUnits="userSpaceOnUse"><stop offset="0" stop-color="#ff8400" stop-opacity=".6"/><stop offset=".999" stop-color="#ff8400" stop-opacity="0"/></radialGradient><circle cx="36" cy="27" r="5" fill="url(#WZr0_LgLKHPc1SB5nP~4rb)"/><radialGradient id="WZr0_LgLKHPc1SB5nP~4rc" cx="12" cy="27" r="5" gradientUnits="userSpaceOnUse"><stop offset="0" stop-color="#ff8400" stop-opacity=".6"/><stop offset=".999" stop-color="#ff8400" stop-opacity="0"/></radialGradient><circle cx="12" cy="27" r="5" fill="url(#WZr0_LgLKHPc1SB5nP~4rc)"/><radialGradient id="WZr0_LgLKHPc1SB5nP~4rd" cx="231.776" cy="30.497" r="5.456" fx="231.773" fy="30.701" gradientTransform="matrix(1.9165 0 0 1.0383 -420.203 -1.339)" gradientUnits="userSpaceOnUse"><stop offset=".947" stop-color="#ffe16e"/><stop offset="1" stop-color="#ffe16e" stop-opacity="0"/></radialGradient><path fill="url(#WZr0_LgLKHPc1SB5nP~4rd)" d="M32.642,30c0,0-1.996,5-8.642,5c-6.156,0-8.637-5-8.637-5s1.627,2.305,8.72,2.305S32.642,30,32.642,30z"/><radialGradient id="WZr0_LgLKHPc1SB5nP~4re" cx="24.095" cy="28.488" r="8.479" gradientTransform="matrix(1.0924 0 0 1.1169 -2.217 -4.326)" gradientUnits="userSpaceOnUse"><stop offset=".819" stop-color="#cc9000"/><stop offset=".988" stop-color="#fbbc23" stop-opacity=".069"/><stop offset="1" stop-color="#ffbf26" stop-opacity="0"/></radialGradient><path fill="url(#WZr0_LgLKHPc1SB5nP~4re)" d="M24,35c-6.815,0-9.227-5.819-9.227-5.819S15.923,37,24,37s9.227-7.819,9.227-7.819S30.815,35,24,35z"/><radialGradient id="WZr0_LgLKHPc1SB5nP~4rf" cx="24" cy="29.843" r="9.652" gradientTransform="matrix(1 0 0 .3754 0 18.64)" gradientUnits="userSpaceOnUse"><stop offset="0" stop-color="#1c1911"/><stop offset=".999" stop-color="#171714"/></radialGradient><path fill="url(#WZr0_LgLKHPc1SB5nP~4rf)" d="M32.378,28.788c0.455-0.38,1.076,0.215,0.717,0.687C31.453,31.634,28.603,34,24,34s-7.453-2.366-9.095-4.525c-0.359-0.472,0.262-1.067,0.717-0.687C17.501,30.355,20.344,32,24,32S30.499,30.355,32.378,28.788z"/><circle cx="34.5" cy="22.5" r=".5" fill="#212121"/><path fill="#212121" d="M27.742,22.939c0,0,1.726-0.944,3.258-0.944s3.258,0.944,3.258,0.944l0.631-0.754 c0,0-1.765-2.185-3.889-2.185s-3.889,2.185-3.889,2.185L27.742,22.939z"/><circle cx="27.5" cy="22.5" r=".5" fill="#212121"/><g><circle cx="20.5" cy="22.5" r=".5" fill="#212121"/><path fill="#212121" d="M13.742,22.939c0,0,1.726-0.944,3.258-0.944s3.258,0.944,3.258,0.944l0.631-0.754 c0,0-1.765-2.185-3.889-2.185s-3.889,2.185-3.889,2.185L13.742,22.939z"/><circle cx="13.5" cy="22.5" r=".5" fill="#212121"/></g></svg>