<svg xmlns="http://www.w3.org/2000/svg" xmlns:xlink="http://www.w3.org/1999/xlink" viewBox="0 0 48 48"><radialGradient id="vGlAkbi6IlCXWth5LaMyZa" cx="24" cy="24" r="18" fx="23.905" fy="16.289" gradientUnits="userSpaceOnUse"><stop offset="0" stop-color="#ffe16e"/><stop offset=".629" stop-color="#ffd226"/><stop offset=".75" stop-color="#fdcd23"/><stop offset=".899" stop-color="#f6bd1b"/><stop offset=".999" stop-color="#f0af13"/></radialGradient><circle cx="24" cy="24" r="18" fill="url(#vGlAkbi6IlCXWth5LaMyZa)"/><radialGradient id="vGlAkbi6IlCXWth5LaMyZb" cx="24.303" cy="27.049" r="8.559" gradientTransform="rotate(-20.331 23.997 24)" gradientUnits="userSpaceOnUse"><stop offset=".819" stop-color="#cc9000"/><stop offset=".988" stop-color="#fbbc23" stop-opacity=".069"/><stop offset="1" stop-color="#ffbf26" stop-opacity="0"/></radialGradient><path fill="url(#vGlAkbi6IlCXWth5LaMyZb)" d="M21,34c0,0,1.495,2,5.039,2C33.858,36,34,27,34,27S31.481,34,21,34z"/><circle cx="18" cy="21" r="4" fill="#fff"/><circle cx="18" cy="21" r="2" fill="#212121"/><radialGradient id="vGlAkbi6IlCXWth5LaMyZc" cx="24.742" cy="29.62" r="6.904" gradientTransform="matrix(.9377 -.3474 .1304 .352 -.416 27.18)" gradientUnits="userSpaceOnUse"><stop offset="0" stop-color="#1c1911"/><stop offset=".999" stop-color="#171714"/></radialGradient><path fill="url(#vGlAkbi6IlCXWth5LaMyZc)" d="M32.139,26.151l0.797,0.596c0,0-3.532,6.253-11.936,6.253v-2C28.99,31,32.139,26.151,32.139,26.151z"/><radialGradient id="vGlAkbi6IlCXWth5LaMyZd" cx="21" cy="31.441" r="1.771" gradientTransform="matrix(.9377 -.3474 .1304 .352 -2.792 27.669)" gradientUnits="userSpaceOnUse"><stop offset="0" stop-color="#1c1911"/><stop offset=".999" stop-color="#171714"/></radialGradient><circle cx="21" cy="32" r="1" fill="url(#vGlAkbi6IlCXWth5LaMyZd)"/><radialGradient id="vGlAkbi6IlCXWth5LaMyZe" cx="32.5" cy="26.22" r=".885" gradientTransform="matrix(.9377 -.3474 .1304 .352 -1.395 28.28)" gradientUnits="userSpaceOnUse"><stop offset="0" stop-color="#1c1911"/><stop offset=".999" stop-color="#171714"/></radialGradient><circle cx="32.5" cy="26.5" r=".5" fill="url(#vGlAkbi6IlCXWth5LaMyZe)"/><circle cx="34.5" cy="21.5" r=".5" fill="#212121"/><path fill="#212121" d="M27.742,21.939c0,0,1.726-0.944,3.258-0.944s3.258,0.944,3.258,0.944l0.631-0.754 c0,0-1.765-2.185-3.889-2.185s-3.889,2.185-3.889,2.185L27.742,21.939z"/><circle cx="27.5" cy="21.5" r=".5" fill="#212121"/></svg>